<?xml version="1.0" encoding="utf-8"?>
<!-- Generator: Adobe Illustrator 16.0.0, SVG Export Plug-In . SVG Version: 6.00 Build 0)  -->
<!DOCTYPE svg PUBLIC "-//W3C//DTD SVG 1.1//EN" "http://www.w3.org/Graphics/SVG/1.1/DTD/svg11.dtd">
<svg version="1.1" xmlns="http://www.w3.org/2000/svg" xmlns:xlink="http://www.w3.org/1999/xlink" x="0px" y="0px"
	 width="208.502px" height="240.757px" viewBox="0 0 208.502 240.757" enable-background="new 0 0 208.502 240.757"
	 xml:space="preserve">
<g id="Layer_1">
	<polygon fill="#52BF9F" points="0,60.189 104.251,0 208.502,60.189 208.502,180.568 104.251,240.757 0,180.568 	"/>
</g>
<g id="Layer_2">
	<path fill="#F9F9FA" d="M104.341,180.373c0,0-0.041,1.035-0.068,2.168c-0.026-1.133-0.067-2.168-0.067-2.168h-4.704
		c0,0,3.226,5.056,4.704,5.056c0.033,0,0.053-0.141,0.067-0.36c0.014,0.219,0.036,0.36,0.068,0.36c1.478,0,4.703-5.056,4.703-5.056
		H104.341z"/>
	<path fill="#F9F9FA" d="M150.119,94.972c2.526-4.157,15.012-28.904-45.869-28.904c-61.04,0-48.328,24.879-45.848,28.938
		C79.714,94.304,111.714,93.809,150.119,94.972z"/>
	<g>
		<path fill="#F9F9FA" d="M63.012,101.413c-0.545,13.018-0.855,74.423,41.261,80.014c42.023-5.578,41.808-66.728,41.266-79.931
			C111.511,101.955,82.945,101.739,63.012,101.413z"/>
	</g>
	<path fill="#F9F9FA" d="M104.184,66.673c0,0,0.041-1.035,0.068-2.167c0.026,1.133,0.067,2.167,0.067,2.167h4.704
		c0,0-3.226-5.056-4.704-5.056c-0.032,0-0.053,0.141-0.067,0.36c-0.015-0.219-0.036-0.36-0.068-0.36
		c-1.479,0-4.703,5.056-4.703,5.056H104.184z"/>
</g>
</svg>
